{
    "asset" : {
        "generator" : "Khronos glTF Blender I/O v3.3.27",
        "version" : "2.0"
    },
    "scene" : 0,
    "scenes" : [
        {
            "name" : "Scene",
            "nodes" : [
                10,
                11
            ]
        }
    ],
    "nodes" : [
        {
            "name" : "Box014",
            "rotation" : [
                -0.7071068286895752,
                0,
                0,
                0.7071067094802856
            ],
            "translation" : [
                576.2100830078125,
                0,
                15.57857894897461
            ]
        },
        {
            "name" : "Box019",
            "rotation" : [
                0,
                -0.7071068286895752,
                -0.7071068286895752,
                5.338507946817117e-08
            ],
            "translation" : [
                601.2490234375,
                0,
                108.36337280273438
            ]
        },
        {
            "mesh" : 0,
            "name" : "Box023_01 - Default_0"
        },
        {
            "mesh" : 1,
            "name" : "Box023_03 - Default_0"
        },
        {
            "children" : [
                2,
                3
            ],
            "name" : "Box023",
            "rotation" : [
                0,
                -0.7071068286895752,
                -0.7071068286895752,
                5.338507946817117e-08
            ],
            "translation" : [
                106.88497924804688,
                4.7718658447265625,
                91.76740264892578
            ]
        },
        {
            "name" : "Object_5",
            "translation" : [
                3.0517578125e-05,
                6.103515625e-05,
                0
            ]
        },
        {
            "children" : [
                5
            ],
            "name" : "Object_4",
            "rotation" : [
                0.7071068286895752,
                0,
                0,
                0.7071067094802856
            ],
            "translation" : [
                -3.0517578125e-05,
                0,
                -6.103515625e-05
            ]
        },
        {
            "children" : [
                6
            ],
            "name" : "Sky001",
            "translation" : [
                467.8206787109375,
                0,
                930.394287109375
            ]
        },
        {
            "children" : [
                0,
                1,
                4,
                7
            ],
            "name" : "RootNode"
        },
        {
            "children" : [
                8
            ],
            "name" : "772dd716b3d94bd3a5a3c709acac91db.fbx",
            "rotation" : [
                0.7071068286895752,
                0,
                0,
                0.7071067094802856
            ]
        },
        {
            "children" : [
                9
            ],
            "name" : "Sketchfab_model",
            "rotation" : [
                -0.7071068286895752,
                0,
                0,
                0.7071067094802856
            ]
        },
        {
            "mesh" : 2,
            "name" : "Cube"
        }
    ],
    "materials" : [
        {
            "doubleSided" : true,
            "name" : "01_-_Default",
            "pbrMetallicRoughness" : {
                "baseColorFactor" : [
                    0,
                    1,
                    0,
                    1
                ],
                "metallicFactor" : 0,
                "roughnessFactor" : 0.6000000238418579
            }
        },
        {
            "doubleSided" : true,
            "name" : "03_-_Default",
            "pbrMetallicRoughness" : {
                "baseColorFactor" : [
                    0.8627449870109558,
                    0.8627449870109558,
                    0.8627449870109558,
                    1
                ],
                "metallicFactor" : 0,
                "roughnessFactor" : 0.6000000238418579
            }
        },
        {
            "doubleSided" : true,
            "name" : "Material",
            "pbrMetallicRoughness" : {
                "baseColorFactor" : [
                    0.800000011920929,
                    0.800000011920929,
                    0.800000011920929,
                    1
                ],
                "metallicFactor" : 0,
                "roughnessFactor" : 0.5
            }
        }
    ],
    "meshes" : [
        {
            "name" : "Box023_01 - Default_0",
            "primitives" : [
                {
                    "attributes" : {
                        "POSITION" : 0,
                        "NORMAL" : 1,
                        "TEXCOORD_0" : 2
                    },
                    "indices" : 3,
                    "material" : 0
                }
            ]
        },
        {
            "name" : "Box023_03 - Default_0",
            "primitives" : [
                {
                    "attributes" : {
                        "POSITION" : 4,
                        "NORMAL" : 5,
                        "TEXCOORD_0" : 6
                    },
                    "indices" : 7,
                    "material" : 1
                }
            ]
        },
        {
            "name" : "Cube",
            "primitives" : [
                {
                    "attributes" : {
                        "POSITION" : 8,
                        "NORMAL" : 9,
                        "TEXCOORD_0" : 10
                    },
                    "indices" : 11,
                    "material" : 2
                }
            ]
        }
    ],
    "accessors" : [
        {
            "bufferView" : 0,
            "componentType" : 5126,
            "count" : 4244,
            "max" : [
                71.09049224853516,
                46.921104431152344,
                159.25506591796875
            ],
            "min" : [
                -46.83852767944336,
                -29.339065551757812,
                0.6768098473548889
            ],
            "type" : "VEC3"
        },
        {
            "bufferView" : 1,
            "componentType" : 5126,
            "count" : 4244,
            "type" : "VEC3"
        },
        {
            "bufferView" : 2,
            "componentType" : 5126,
            "count" : 4244,
            "type" : "VEC2"
        },
        {
            "bufferView" : 3,
            "componentType" : 5123,
            "count" : 4248,
            "type" : "SCALAR"
        },
        {
            "bufferView" : 4,
            "componentType" : 5126,
            "count" : 25144,
            "max" : [
                71.85911560058594,
                63.693077087402344,
                156.74874877929688
            ],
            "min" : [
                -50.088287353515625,
                -32.8243522644043,
                -7.144335746765137
            ],
            "type" : "VEC3"
        },
        {
            "bufferView" : 5,
            "componentType" : 5126,
            "count" : 25144,
            "type" : "VEC3"
        },
        {
            "bufferView" : 6,
            "componentType" : 5126,
            "count" : 25144,
            "type" : "VEC2"
        },
        {
            "bufferView" : 7,
            "componentType" : 5123,
            "count" : 25212,
            "type" : "SCALAR"
        },
        {
            "bufferView" : 8,
            "componentType" : 5126,
            "count" : 24,
            "max" : [
                1,
                1,
                1
            ],
            "min" : [
                -1,
                -1,
                -1
            ],
            "type" : "VEC3"
        },
        {
            "bufferView" : 9,
            "componentType" : 5126,
            "count" : 24,
            "type" : "VEC3"
        },
        {
            "bufferView" : 10,
            "componentType" : 5126,
            "count" : 24,
            "type" : "VEC2"
        },
        {
            "bufferView" : 11,
            "componentType" : 5123,
            "count" : 36,
            "type" : "SCALAR"
        }
    ],
    "bufferViews" : [
        {
            "buffer" : 0,
            "byteLength" : 50928,
            "byteOffset" : 0,
            "target" : 34962
        },
        {
            "buffer" : 0,
            "byteLength" : 50928,
            "byteOffset" : 50928,
            "target" : 34962
        },
        {
            "buffer" : 0,
            "byteLength" : 33952,
            "byteOffset" : 101856,
            "target" : 34962
        },
        {
            "buffer" : 0,
            "byteLength" : 8496,
            "byteOffset" : 135808,
            "target" : 34963
        },
        {
            "buffer" : 0,
            "byteLength" : 301728,
            "byteOffset" : 144304,
            "target" : 34962
        },
        {
            "buffer" : 0,
            "byteLength" : 301728,
            "byteOffset" : 446032,
            "target" : 34962
        },
        {
            "buffer" : 0,
            "byteLength" : 201152,
            "byteOffset" : 747760,
            "target" : 34962
        },
        {
            "buffer" : 0,
            "byteLength" : 50424,
            "byteOffset" : 948912,
            "target" : 34963
        },
        {
            "buffer" : 0,
            "byteLength" : 288,
            "byteOffset" : 999336,
            "target" : 34962
        },
        {
            "buffer" : 0,
            "byteLength" : 288,
            "byteOffset" : 999624,
            "target" : 34962
        },
        {
            "buffer" : 0,
            "byteLength" : 192,
            "byteOffset" : 999912,
            "target" : 34962
        },
        {
            "buffer" : 0,
            "byteLength" : 72,
            "byteOffset" : 1000104,
            "target" : 34963
        }
    ],
    "buffers" : [
        {
            "byteLength" : 1000176,
            "uri" : "data:application/octet-stream;base64,"
        }
    ]
}
