{
  "accessors": [
    {
      "bufferView": 2,
      "componentType": 5126,
      "count": 384,
      "max": [
        0.46000003814697266,
        0.06500006467103958,
        0.46000003814697266
      ],
      "min": [
        -0.46000003814697266,
        -0.06500006467103958,
        -0.46000003814697266
      ],
      "type": "VEC3"
    },
    {
      "bufferView": 2,
      "byteOffset": 4608,
      "componentType": 5126,
      "count": 384,
      "max": [
        1.0,
        1.0,
        1.0
      ],
      "min": [
        -1.0,
        -1.0,
        -1.0
      ],
      "type": "VEC3"
    },
    {
      "bufferView": 3,
      "componentType": 5126,
      "count": 384,
      "max": [
        1.0,
        1.0,
        0.9998748898506165,
        1.0
      ],
      "min": [
        -0.7037087678909302,
        -1.0,
        -0.8942806720733643,
        -1.0
      ],
      "type": "VEC4"
    },
    {
      "bufferView": 1,
      "componentType": 5126,
      "count": 384,
      "max": [
        0.9966225624084473,
        0.9974961280822754
      ],
      "min": [
        0.002502620220184326,
        0.002596672624349594
      ],
      "type": "VEC2"
    },
    {
      "bufferView": 1,
      "byteOffset": 3072,
      "componentType": 5126,
      "count": 384,
      "max": [
        0.9966225624084473,
        0.9974961280822754
      ],
      "min": [
        0.002502620220184326,
        0.002596672624349594
      ],
      "type": "VEC2"
    },
    {
      "bufferView": 1,
      "byteOffset": 6144,
      "componentType": 5126,
      "count": 384,
      "max": [
        0.9966225624084473,
        0.9974961280822754
      ],
      "min": [
        0.002502620220184326,
        0.002596672624349594
      ],
      "type": "VEC2"
    },
    {
      "bufferView": 1,
      "byteOffset": 9216,
      "componentType": 5126,
      "count": 384,
      "max": [
        0.9966225624084473,
        0.9974961280822754
      ],
      "min": [
        0.002502620220184326,
        0.002596672624349594
      ],
      "type": "VEC2"
    },
    {
      "bufferView": 0,
      "componentType": 5125,
      "count": 1236,
      "type": "SCALAR"
    },
    {
      "bufferView": 4,
      "componentType": 5126,
      "count": 50,
      "max": [
        2.0833332538604736
      ],
      "min": [
        0.0416666679084301
      ],
      "type": "SCALAR"
    },
    {
      "bufferView": 5,
      "componentType": 5126,
      "count": 50,
      "max": [
        0.0,
        0.640626072883606,
        -0.0
      ],
      "min": [
        0.0,
        0.5138098001480103,
        -0.0
      ],
      "type": "VEC3"
    },
    {
      "bufferView": 4,
      "byteOffset": 200,
      "componentType": 5126,
      "count": 50,
      "max": [
        2.0833332538604736
      ],
      "min": [
        0.0416666679084301
      ],
      "type": "SCALAR"
    },
    {
      "bufferView": 6,
      "componentType": 5126,
      "count": 50,
      "max": [
        0.7075202465057373,
        0.706222653388977,
        0.7072539329528809,
        0.7066931128501892
      ],
      "min": [
        0.019414512440562248,
        -0.7064269185066223,
        -0.7070492506027222,
        0.01938912831246853
      ],
      "type": "VEC4"
    },
    {
      "bufferView": 4,
      "byteOffset": 400,
      "componentType": 5126,
      "count": 3,
      "max": [
        2.0833332538604736
      ],
      "min": [
        0.0416666679084301
      ],
      "type": "SCALAR"
    },
    {
      "bufferView": 5,
      "byteOffset": 600,
      "componentType": 5126,
      "count": 3,
      "max": [
        0.6722848415374756,
        0.6722848415374756,
        0.6722849607467651
      ],
      "min": [
        0.6722847819328308,
        0.6722848415374756,
        0.6722849607467651
      ],
      "type": "VEC3"
    },
    {
      "bufferView": 4,
      "byteOffset": 412,
      "componentType": 5126,
      "count": 50,
      "max": [
        2.0833332538604736
      ],
      "min": [
        0.0416666679084301
      ],
      "type": "SCALAR"
    },
    {
      "bufferView": 6,
      "byteOffset": 800,
      "componentType": 5126,
      "count": 50,
      "max": [
        1.063086045860473e-07,
        0.5366009473800659,
        4.210193781469971e-15,
        1.0
      ],
      "min": [
        8.970702936039743e-08,
        -0.00010193564230576158,
        -0.0,
        0.8438361883163452
      ],
      "type": "VEC4"
    },
    {
      "bufferView": 4,
      "byteOffset": 612,
      "componentType": 5126,
      "count": 50,
      "max": [
        2.0833332538604736
      ],
      "min": [
        0.0416666679084301
      ],
      "type": "SCALAR"
    },
    {
      "bufferView": 5,
      "byteOffset": 636,
      "componentType": 5126,
      "count": 50,
      "max": [
        0.0,
        0.640626072883606,
        -0.0
      ],
      "min": [
        0.0,
        0.5138098001480103,
        -0.0
      ],
      "type": "VEC3"
    }
  ],
  "animations": [
    {
      "channels": [
        {
          "sampler": 0,
          "target": {
            "node": 3,
            "path": "translation"
          }
        },
        {
          "sampler": 1,
          "target": {
            "node": 3,
            "path": "rotation"
          }
        },
        {
          "sampler": 2,
          "target": {
            "node": 3,
            "path": "scale"
          }
        }
      ],
      "name": "Action",
      "samplers": [
        {
          "input": 8,
          "interpolation": "LINEAR",
          "output": 9
        },
        {
          "input": 10,
          "interpolation": "LINEAR",
          "output": 11
        },
        {
          "input": 12,
          "interpolation": "LINEAR",
          "output": 13
        }
      ]
    },
    {
      "channels": [
        {
          "sampler": 0,
          "target": {
            "node": 3,
            "path": "rotation"
          }
        },
        {
          "sampler": 1,
          "target": {
            "node": 3,
            "path": "translation"
          }
        }
      ],
      "name": "CylinderAction.006",
      "samplers": [
        {
          "input": 14,
          "interpolation": "LINEAR",
          "output": 15
        },
        {
          "input": 16,
          "interpolation": "LINEAR",
          "output": 17
        }
      ]
    }
  ],
  "asset": {
    "extras": {
      "author": "Elin (https://sketchfab.com/ElinHohler)",
      "license": "CC-BY-4.0 (http://creativecommons.org/licenses/by/4.0/)",
      "source": "https://sketchfab.com/3d-models/video-game-coin-062e04afa200434cb3ba96b112faf516",
      "title": "Video game Coin"
    },
    "generator": "Sketchfab-12.67.0",
    "version": "2.0"
  },
  "bufferViews": [
    {
      "buffer": 0,
      "byteLength": 4944,
      "name": "floatBufferViews",
      "target": 34963
    },
    {
      "buffer": 0,
      "byteLength": 12288,
      "byteOffset": 4944,
      "byteStride": 8,
      "name": "floatBufferViews",
      "target": 34962
    },
    {
      "buffer": 0,
      "byteLength": 9216,
      "byteOffset": 17232,
      "byteStride": 12,
      "name": "floatBufferViews",
      "target": 34962
    },
    {
      "buffer": 0,
      "byteLength": 6144,
      "byteOffset": 26448,
      "byteStride": 16,
      "name": "floatBufferViews",
      "target": 34962
    },
    {
      "buffer": 0,
      "byteLength": 812,
      "byteOffset": 32592,
      "name": "floatBufferViews"
    },
    {
      "buffer": 0,
      "byteLength": 1236,
      "byteOffset": 33404,
      "byteStride": 12,
      "name": "floatBufferViews"
    },
    {
      "buffer": 0,
      "byteLength": 1600,
      "byteOffset": 34640,
      "byteStride": 16,
      "name": "floatBufferViews"
    }
  ],
  "buffers": [
    {
      "byteLength": 36240,
      "uri": "scene.bin"
    }
  ],
  "images": [
    {
      "uri": "textures/Coin_baseColor.png"
    },
    {
      "uri": "textures/Coin_metallicRoughness.png"
    },
    {
      "uri": "textures/Coin_normal.png"
    }
  ],
  "materials": [
    {
      "doubleSided": true,
      "name": "Coin",
      "normalTexture": {
        "index": 2
      },
      "pbrMetallicRoughness": {
        "baseColorTexture": {
          "index": 0
        },
        "metallicRoughnessTexture": {
          "index": 1
        }
      }
    }
  ],
  "meshes": [
    {
      "name": "Object_0",
      "primitives": [
        {
          "attributes": {
            "NORMAL": 1,
            "POSITION": 0,
            "TANGENT": 2,
            "TEXCOORD_0": 3,
            "TEXCOORD_1": 4,
            "TEXCOORD_2": 5,
            "TEXCOORD_3": 6
          },
          "indices": 7,
          "material": 0,
          "mode": 4
        }
      ]
    }
  ],
  "nodes": [
    {
      "children": [
        1
      ],
      "matrix": [
        1.0,
        0.0,
        0.0,
        0.0,
        0.0,
        2.220446049250313e-16,
        -1.0,
        0.0,
        0.0,
        1.0,
        2.220446049250313e-16,
        0.0,
        0.0,
        0.0,
        0.0,
        1.0
      ],
      "name": "Sketchfab_model"
    },
    {
      "children": [
        2
      ],
      "name": "root"
    },
    {
      "children": [
        3
      ],
      "matrix": [
        1.0,
        0.0,
        0.0,
        0.0,
        0.0,
        2.220446049250313e-16,
        1.0,
        0.0,
        0.0,
        -1.0,
        2.220446049250313e-16,
        0.0,
        0.0,
        0.0,
        0.0,
        1.0
      ],
      "name": "GLTF_SceneRootNode"
    },
    {
      "children": [
        4
      ],
      "name": "Coin_0",
      "rotation": [
        0.7075201869010925,
        -0.00011329917469993234,
        0.00011331353016430512,
        0.7066931128501892
      ],
      "scale": [
        0.6722848415374756,
        0.6722848415374756,
        0.6722849607467651
      ],
      "translation": [
        0.0,
        0.5138098001480103,
        0.0
      ]
    },
    {
      "mesh": 0,
      "name": "Object_4"
    }
  ],
  "samplers": [
    {
      "magFilter": 9729,
      "minFilter": 9987,
      "wrapS": 10497,
      "wrapT": 10497
    }
  ],
  "scene": 0,
  "scenes": [
    {
      "name": "Sketchfab_Scene",
      "nodes": [
        0
      ]
    }
  ],
  "textures": [
    {
      "sampler": 0,
      "source": 0
    },
    {
      "sampler": 0,
      "source": 1
    },
    {
      "sampler": 0,
      "source": 2
    }
  ]
}
